<?xml version="1.0" encoding="utf-8"?>
<!-- Generator: Adobe Illustrator 25.4.1, SVG Export Plug-In . SVG Version: 6.00 Build 0)  -->
<svg version="1.1" id="Calque_1" xmlns="http://www.w3.org/2000/svg" xmlns:xlink="http://www.w3.org/1999/xlink" x="0px" y="0px"
	 viewBox="0 0 301.7 105.1" style="enable-background:new 0 0 301.7 105.1;" xml:space="preserve">
<style type="text/css">
	.st0{fill:#040f16;}
</style>
<g class="st0">
	<path d="M0,0h23.3c6.2,0,11.9,0.8,17,2.5c5.1,1.7,9.4,4.2,13,7.7c3.6,3.5,6.4,7.9,8.4,13.2c2,5.4,3,11.7,3,19.1
		c0,7.4-1,13.8-3,19.2c-2,5.4-4.7,9.9-8.3,13.5c-3.6,3.6-7.8,6.2-12.7,8c-4.9,1.8-10.4,2.6-16.3,2.6H0V0z M22.2,70.1
		c3.3,0,6.4-0.5,9.1-1.4c2.8-1,5.1-2.5,7.1-4.7c2-2.1,3.5-5,4.6-8.5c1.1-3.5,1.6-7.9,1.6-13c0-5.1-0.5-9.4-1.6-12.8
		c-1.1-3.5-2.6-6.2-4.6-8.3c-2-2.1-4.3-3.5-7.1-4.4c-2.8-0.9-5.8-1.3-9.1-1.3h-2.8v54.5H22.2z"/>
	<path d="M70.9,0h19.7l2.8,45.7c0.1,3.7,0.2,7.3,0.3,10.9c0.1,3.6,0.2,7.2,0.3,10.9h0.4c0.7-3.7,1.5-7.3,2.3-10.9
		c0.8-3.6,1.6-7.2,2.3-10.9l5.9-23.8h11.7l5.7,23.8c0.7,3.5,1.4,7.1,2.2,10.8c0.8,3.7,1.5,7.4,2.2,11.1h0.5c0.2-3.7,0.3-7.3,0.3-11
		c0-3.6,0.2-7.3,0.3-10.9L130.4,0h18.4l-10.7,85.8h-20.3l-5.4-27c-0.5-2.7-1-5.5-1.4-8.4c-0.4-2.8-0.7-5.5-0.9-8.1h-0.4
		c-0.3,2.5-0.6,5.2-1,8.1c-0.4,2.9-0.9,5.6-1.4,8.4l-5.1,27H82.4L70.9,0z"/>
	<path d="M179.1,16.3h-25.7V0h70.8v16.3h-25.7v69.5h-19.5V16.3z"/>
</g>
<rect x="243.2" y="85.8" class="st0" width="58.5" height="19.3"/>
</svg>
