<?xml version="1.0" encoding="UTF-8"?><svg id="Calque_2" xmlns="http://www.w3.org/2000/svg" xmlns:xlink="http://www.w3.org/1999/xlink" viewBox="0 0 384.85 265.1"><defs><style>.cls-1{fill:#1a1a1a;}.cls-2{fill:url(#Nouvelle_nuance_de_dégradé_1);}</style><linearGradient id="Nouvelle_nuance_de_dégradé_1" x1="144.42" y1="86.24" x2="290.02" y2="86.24" gradientUnits="userSpaceOnUse"><stop offset="0" stop-color="#2ef2f8"/><stop offset="1" stop-color="#1e40ff"/></linearGradient></defs><g id="Calque_2-2"><g><g id="Logo"><path class="cls-1" d="M154.91,170.32c-7.74,4.47-17.63,1.81-22.1-5.92l-32.36-56.05c-4.47-7.73-1.82-17.63,5.92-22.1,2.54-1.47,5.33-2.17,8.07-2.17,5.59,0,11.03,2.9,14.03,8.09l32.36,56.05c4.47,7.73,1.81,17.63-5.92,22.1Z"/><path class="cls-2" d="M290.02,16.22c0,2.74-.7,5.52-2.17,8.07l-80.89,140.11c-4.47,7.74-14.37,10.39-22.1,5.92-2.99-1.73-5.22-4.26-6.58-7.18l-31.7-54.9c-4.47-7.73-1.81-17.63,5.92-22.1,2.55-1.47,5.33-2.17,8.07-2.17,5.6,0,11.03,2.9,14.03,8.09l18.38,31.83,52.85-91.53h-36.75c-8.94,0-16.18-7.25-16.18-16.18,0-4.47,1.81-8.52,4.74-11.44,2.93-2.93,6.97-4.74,11.44-4.74h64.72c.71,0,1.42,.05,2.1,.14,0,0,.01,0,.01,0,.17,.03,.34,.05,.51,.08,.17,.02,.34,.05,.51,.09,.17,.03,.34,.07,.51,.11s.34,.08,.5,.12c0,0,.01,0,.03,0,.3,.08,.59,.17,.88,.27,.38,.12,.75,.25,1.11,.41,.12,.05,.23,.1,.34,.14,.17,.07,.34,.15,.5,.23,.22,.1,.43,.21,.64,.32,.02,.01,.04,.02,.06,.03,.23,.12,.46,.25,.68,.39,5.03,3.02,7.83,8.37,7.83,13.87Z"/></g><g><path class="cls-1" d="M0,259.9l6.35-7.5c1.85,2.3,3.6,3.45,5.55,3.45,2.45,0,3.8-1.5,3.8-4.35v-13.3H3.8v-8.9H27.35v21.5c0,9.6-5.05,14.3-14.45,14.3-5.45,0-10-1.8-12.9-5.2Z"/><path class="cls-1" d="M89.7,229.29l-11.2,35h-12.65l-5.65-18.7-5.95,18.7h-12.65l-11.2-35h12.15l6.1,19.9,6.45-19.9h10.85l6.1,20.15,6.45-20.15h11.2Z"/><path class="cls-1" d="M121.4,255.4v8.9h-29.1v-35h28.45v8.9h-16.85v4.1h14.8v8.5h-14.8v4.6h17.5Z"/><path class="cls-1" d="M160.45,254.65c0,6.1-5.15,9.65-14.8,9.65h-19.7v-35h18.7c9.65,0,14.15,3.85,14.15,9.15,0,3.25-1.65,5.95-4.85,7.55,4.1,1.5,6.5,4.5,6.5,8.65Zm-22.9-17.1v5.2h5.5c2.65,0,3.85-.9,3.85-2.6s-1.2-2.6-3.85-2.6h-5.5Zm11,15.75c0-1.8-1.3-2.75-3.9-2.75h-7.1v5.5h7.1c2.6,0,3.9-.95,3.9-2.75Z"/><path class="cls-1" d="M195.85,264.3l-.1-15.95-7.6,12.8h-5.2l-7.6-12.25v15.4h-10.75v-35h9.7l11.4,18.65,11.1-18.65h9.7l.1,35h-10.75Z"/><path class="cls-1" d="M236.15,258.19h-13.3l-2.35,6.1h-12l15.3-35h11.6l15.3,35h-12.2l-2.35-6.1Zm-3.25-8.5l-3.4-8.8-3.4,8.8h6.8Z"/><path class="cls-1" d="M250.4,261.5l3.8-8.6c3.3,1.95,7.7,3.2,11.55,3.2,3.35,0,4.55-.7,4.55-1.9,0-4.4-19.35-.85-19.35-13.9,0-6.5,5.45-11.8,16.3-11.8,4.7,0,9.55,1,13.2,3.05l-3.55,8.55c-3.45-1.75-6.7-2.6-9.75-2.6-3.45,0-4.55,1-4.55,2.2,0,4.2,19.35,.7,19.35,13.6,0,6.4-5.45,11.8-16.3,11.8-5.85,0-11.75-1.45-15.25-3.6Z"/><path class="cls-1" d="M292.55,238.44h-10.25v-9.15h32.3v9.15h-10.25v25.85h-11.8v-25.85Z"/><path class="cls-1" d="M346.75,255.4v8.9h-29.1v-35h28.45v8.9h-16.85v4.1h14.8v8.5h-14.8v4.6h17.5Z"/><path class="cls-1" d="M366.3,255.49h-3.2v8.8h-11.8v-35h16.85c9.75,0,15.95,5.1,15.95,13.2,0,5.05-2.4,8.85-6.6,11l7.35,10.8h-12.6l-5.95-8.8Zm1.1-17.1h-4.3v8.2h4.3c3.25,0,4.8-1.55,4.8-4.1s-1.55-4.1-4.8-4.1Z"/></g></g></g></svg>